<svg height="100%" viewBox="0 0 960 960" width="100%" xmlns="http://www.w3.org/2000/svg" xmlns:xlink="http://www.w3.org/1999/xlink">
  <path d="M960,480C960,524.333 954.333,566.917 943,607.75C931.667,648.583 915.583,686.833 894.75,722.5C873.917,758.167 848.917,790.583 819.75,819.75C790.583,848.917 758.167,873.917 722.5,894.75C686.833,915.583 648.583,931.667 607.75,943C566.917,954.333 524.333,960 480,960C435.667,960 393,954.333 352,943C311,931.667 272.75,915.583 237.25,894.75C201.75,873.917 169.417,848.917 140.25,819.75C111.083,790.583 86.0833,758.25 65.25,722.75C44.4167,687.25 28.3333,649 17,608C5.66667,567 0,524.333 0,480C0,435.667 5.66667,393.083 17,352.25C28.3333,311.417 44.4167,273.167 65.25,237.5C86.0833,201.833 111.083,169.417 140.25,140.25C169.417,111.083 201.833,86.0834 237.5,65.25C273.167,44.4167 311.417,28.3334 352.25,17C393.083,5.66669 435.667,0 480,0C524,0 566.417,5.75 607.25,17.25C648.083,28.75 686.333,44.9167 722,65.75C757.667,86.5834 790.083,111.583 819.25,140.75C848.417,169.917 873.417,202.333 894.25,238C915.083,273.667 931.25,311.917 942.75,352.75C954.25,393.583 960,436 960,480ZM896,480C896,441.667 891.083,404.75 881.25,369.25C871.417,333.75 857.417,300.583 839.25,269.75C821.083,238.917 799.417,210.917 774.25,185.75C749.083,160.583 721.083,138.917 690.25,120.75C659.417,102.583 626.25,88.5834 590.75,78.75C555.25,68.9167 518.333,64.0001 480,64C441.667,64.0001 404.75,68.9167 369.25,78.75C333.75,88.5834 300.583,102.583 269.75,120.75C238.917,138.917 210.917,160.583 185.75,185.75C160.583,210.917 138.917,238.917 120.75,269.75C102.583,300.583 88.5833,333.75 78.75,369.25C68.9167,404.75 64,441.667 64,480C64,518.333 68.9167,555.25 78.75,590.75C88.5833,626.25 102.5,659.417 120.5,690.25C138.5,721.083 160.167,749.167 185.5,774.5C210.833,799.833 238.917,821.5 269.75,839.5C300.583,857.5 333.75,871.417 369.25,881.25C404.75,891.083 441.667,896 480,896C518.333,896 555.25,891.083 590.75,881.25C626.25,871.417 659.417,857.417 690.25,839.25C721.083,821.083 749.083,799.417 774.25,774.25C799.417,749.083 821.083,721.083 839.25,690.25C857.417,659.417 871.417,626.25 881.25,590.75C891.083,555.25 896,518.333 896,480ZM688,304C688,312.667 684.833,320.167 678.5,326.5L525,480L678.5,633.5C684.833,639.833 688,647.333 688,656C688,664.667 684.833,672.167 678.5,678.5C672.167,684.833 664.667,688 656,688C647.333,688 639.833,684.833 633.5,678.5L480,525L326.5,678.5C320.167,684.833 312.667,688 304,688C295.333,688 287.833,684.833 281.5,678.5C275.167,672.167 272,664.667 272,656C272,647.333 275.167,639.833 281.5,633.5L435,480L281.5,326.5C275.167,320.167 272,312.667 272,304C272,295.333 275.167,287.833 281.5,281.5C287.833,275.167 295.333,272 304,272C312.667,272 320.167,275.167 326.5,281.5L480,435L633.5,281.5C639.833,275.167 647.333,272 656,272C664.667,272 672.167,275.167 678.5,281.5C684.833,287.833 688,295.333 688,304Z" fill="#000000" fill-opacity="1">
  </path>
</svg>